# xmcd
#
# Track frame offsets:
# 150
# 14066
# 25790
# 36593
# 44734
# 56503
# 64128
# 73729
# 86219
# 92776
# 97450
# 101304
# 119487
# 130568
# 145825
# 156406
# 167863
# 182172
# 191657
# 203819
# 216220
# 231347
# 240218
#
# Disc length: 3576 seconds
#
#
# Revision: 0
# Processed by: cddbd v1.5.2PL0 Copyright (c) Steve Scherf et al.
# Submitted via: FreeRIP 2.96 
#
DISCID=5d0df617
DTITLE=Erik Satie - Satie (The Royal Philharmonic Collections)
DYEAR=2005
DGENRE=Classical
TTITLE0=Gymnopedie No 1
TTITLE1=Gymnopedie No 2
TTITLE2=Gymnopedie No 3
TTITLE3=Embryons Desséchés 1 D'Holothurie
TTITLE4=Embryons Desséchés 2 D'Edriophthalama
TTITLE5=Embryons Desséchés 3 De Podophthalma
TTITLE6=Valse Ballet
TTITLE7=Fantasie Valse
TTITLE8=Avant-dernières Pensées 1 Idylle
TTITLE9=Avant-dernières Pensées 2 Aubade
TTITLE10=Avant-dernières Pensées 3 Méditation
TTITLE11=Nocturne No 1
TTITLE12=Nocturne No 2
TTITLE13=Nocturne No 3
TTITLE14=Nocturne No 4
TTITLE15=Nocturne No 5
TTITLE16=Gnossienne No 1
TTITLE17=Gnossienne No 2
TTITLE18=Gnossienne No 3
TTITLE19=Gnossienne No 4
TTITLE20=Gnossienne No 5
TTITLE21=Gnossienne No 6
TTITLE22=Je Te Veux (Waltz)
EXTD=Ronan O'Hora
EXTT0=
EXTT1=
EXTT2=
EXTT3=
EXTT4=
EXTT5=
EXTT6=
EXTT7=
EXTT8=
EXTT9=
EXTT10=
EXTT11=
EXTT12=
EXTT13=
EXTT14=
EXTT15=
EXTT16=
EXTT17=
EXTT18=
EXTT19=
EXTT20=
EXTT21=
EXTT22=
PLAYORDER=
